<svg width="388" height="277" viewBox="0 0 388 277" fill="none" xmlns="http://www.w3.org/2000/svg">
<path d="M388 89.5C388 138.929 347.929 179 298.5 179C249.071 179 209 138.929 209 89.5C209 40.0705 249.071 0 298.5 0C347.929 0 388 40.0705 388 89.5ZM236.069 89.5C236.069 123.979 264.021 151.931 298.5 151.931C332.979 151.931 360.931 123.979 360.931 89.5C360.931 55.0205 332.979 27.0694 298.5 27.0694C264.021 27.0694 236.069 55.0205 236.069 89.5Z" fill="#45DFC3"/>
<path d="M179 89.5C179 138.929 138.929 179 89.5 179C40.0705 179 0 138.929 0 89.5C0 40.0705 40.0705 0 89.5 0C138.929 0 179 40.0705 179 89.5ZM27.0694 89.5C27.0694 123.979 55.0205 151.931 89.5 151.931C123.979 151.931 151.931 123.979 151.931 89.5C151.931 55.0205 123.979 27.0694 89.5 27.0694C55.0205 27.0694 27.0694 55.0205 27.0694 89.5Z" fill="#45DFC3"/>
<circle cx="89.5" cy="89.5" r="32.5" fill="#1F79AB"/>
<circle cx="298.5" cy="89.5" r="32.5" fill="#1F79AB"/>
<path d="M186.834 199.182L181.912 194.533C183.735 191.571 185.216 188.996 186.355 186.809C187.495 184.621 188.338 182.456 188.885 180.314C189.432 178.173 189.705 175.734 189.705 173H179.178V146.34H201.6V168.762C201.6 175.188 200.324 180.747 197.771 185.441C195.219 190.135 191.574 194.715 186.834 199.182Z" fill="#1F79AB"/>
<path d="M23.232 275V213.656H40.512V275H23.232ZM27.456 275V260.504H70.224V275H27.456ZM33.168 250.856V237.032H68.928V250.856H33.168ZM27.456 228.056V213.656H69.744V228.056H27.456ZM75.6945 275L93.1185 241.304V244.856L76.4145 213.656H95.3265L105.503 234.104H106.367L116.543 213.656H135.503L118.703 244.856V241.304L136.223 275H116.831L106.367 253.112H105.503L95.0865 275H75.6945ZM138.577 275L157.009 213.656H183.266L201.506 275H183.553L170.738 225.128H169.585L156.481 275H138.577ZM155.425 261.704V248.264H184.562V261.704H155.425ZM233.897 276.68C224.105 276.68 216.761 274.328 211.865 269.624C206.969 264.888 204.521 258.104 204.521 249.272V240.056C204.521 231.16 206.985 224.28 211.913 219.416C216.841 214.552 224.169 212.12 233.897 212.12C243.657 212.12 250.985 214.552 255.881 219.416C260.809 224.28 263.273 231.16 263.273 240.056V249.272C263.273 258.104 260.825 264.888 255.929 269.624C251.033 274.328 243.689 276.68 233.897 276.68ZM233.897 262.136C237.705 262.136 240.537 261.08 242.393 258.968C244.249 256.824 245.177 253.832 245.177 249.992V239.288C245.177 235.224 244.249 232.104 242.393 229.928C240.537 227.72 237.705 226.616 233.897 226.616C230.121 226.616 227.305 227.72 225.449 229.928C223.593 232.104 222.665 235.224 222.665 239.288V249.992C222.665 253.832 223.593 256.824 225.449 258.968C227.305 261.08 230.121 262.136 233.897 262.136ZM300.205 276.68C290.637 276.68 283.549 274.44 278.941 269.96C274.333 265.48 272.029 258.888 272.029 250.184V213.656H289.789V250.376C289.789 254.184 290.637 257.048 292.333 258.968C294.029 260.888 296.653 261.848 300.205 261.848C303.725 261.848 306.317 260.888 307.981 258.968C309.677 257.048 310.525 254.184 310.525 250.376V213.656H328.285V250.184C328.285 258.888 325.981 265.48 321.374 269.96C316.797 274.44 309.741 276.68 300.205 276.68ZM356.948 275H339.188V213.656H356.948V275ZM349.124 260.264H383.3V275H349.124V260.264Z" fill="black"/>
</svg>
